<svg aria-hidden="true" style="position: absolute; width: 0; height: 0; overflow: hidden;" version="1.1" xmlns="http://www.w3.org/2000/svg" xmlns:xlink="http://www.w3.org/1999/xlink">
<defs>
<symbol id="icon-palette" viewBox="0 0 20 20">
<path fill="#ffce47" style="fill: var(--color1, #ffce47)" d="M16.933 8.037c2.933 1.693 3.938 5.444 2.245 8.377s-5.444 3.938-8.377 2.245c-0.285-0.164-0.552-0.349-0.8-0.55l1.243-6.676 4.813-3.814c0.298 0.114 0.591 0.254 0.876 0.418z"></path>
<path fill="#ff4181" style="fill: var(--color2, #ff4181)" d="M3.067 8.037c-2.933 1.693-3.938 5.444-2.245 8.377s5.444 3.938 8.377 2.245c0.285-0.164 0.552-0.349 0.8-0.55l-1.243-6.676-4.813-3.814c-0.298 0.114-0.591 0.254-0.876 0.418z"></path>
<path fill="#4eb9ff" style="fill: var(--color3, #4eb9ff)" d="M16.133 6.651c0 0.329-0.026 0.653-0.076 0.968l-6.056 2.389-6.056-2.389c-0.050-0.315-0.076-0.638-0.076-0.968 0-3.387 2.746-6.133 6.133-6.133s6.133 2.746 6.133 6.133z"></path>
<path fill="#ff755c" style="fill: var(--color4, #ff755c)" d="M12.191 12.381h-4.382c-0.34 2.13 0.47 4.334 2.191 5.728 1.721-1.394 2.531-3.598 2.191-5.728z"></path>
<path fill="#85c250" style="fill: var(--color5, #85c250)" d="M10 8.586l2.191 3.795c2.015-0.771 3.519-2.574 3.865-4.762-2.068-0.794-4.382-0.392-6.056 0.967z"></path>
<path fill="#3b8bc0" style="fill: var(--color6, #3b8bc0)" d="M3.944 7.619c0.346 2.188 1.851 3.991 3.865 4.762l2.191-3.795c-1.674-1.359-3.988-1.761-6.056-0.967z"></path>
<path fill="#174461" style="fill: var(--color7, #174461)" d="M11.445 10.282c0.386 0.669 0.632 1.38 0.746 2.1-0.681 0.26-1.419 0.403-2.191 0.403s-1.51-0.143-2.191-0.403c0.115-0.719 0.361-1.431 0.746-2.1s0.879-1.237 1.445-1.696c0.566 0.459 1.059 1.028 1.445 1.696z"></path>
</symbol>
<symbol id="icon-arrow-right" viewBox="0 0 20 20">
<path d="M16.172 9l-6.071-6.071 1.414-1.414 8.485 8.485-8.485 8.485-1.414-1.414 6.071-6.071h-16.172v-2z"></path>
</symbol>
</defs>
</svg>
